<?xml version="1.0" standalone="no"?>
<!DOCTYPE svg PUBLIC "-//W3C//DTD SVG 20010904//EN"
 "http://www.w3.org/TR/2001/REC-SVG-20010904/DTD/svg10.dtd">
<svg
    version="1.0"
    xmlns="http://www.w3.org/2000/svg"
    width="394.000000pt"
    height="174.000000pt"
    viewBox="0 0 394.000000 174.000000"
    preserveAspectRatio="xMidYMid meet"
  >
    <metadata>
      Created by potrace 1.16, written by Peter Selinger 2001-2019
    </metadata>
    <g
      transform="translate(0.000000,174.000000) scale(0.100000,-0.100000)"
      fill="#000000"
      stroke="none"
    >
      <path
        stroke="#094067"
        fill="#094067"
        d="M420 1440 c-57 -12 -174 -70 -222 -110 l-38 -31 56 -73 57 -72 63 42
c74 49 148 69 209 54 52 -12 105 -67 106 -112 5 -156 -22 -199 -298 -479
l-183 -186 0 -76 0 -77 380 0 381 0 -3 97 -3 98 -224 3 -225 2 146 143 c214
210 261 293 262 457 1 84 -2 101 -27 152 -55 111 -154 167 -307 174 -47 2
-105 -1 -130 -6z"
      />
      <path
        stroke="#094067"
        fill="#094067"
        d="M1395 1437 c-155 -40 -259 -152 -312 -337 -15 -53 -18 -99 -17 -245
0 -166 2 -186 26 -257 46 -137 111 -217 218 -267 50 -23 67 -26 175 -26 116 0
123 1 186 32 116 57 193 163 236 323 24 90 24 346 0 444 -40 159 -127 272
-245 316 -70 27 -197 35 -267 17z m162 -178 c15 -5 41 -22 56 -37 35 -33 72
-101 60 -112 -41 -39 -389 -278 -395 -272 -11 11 8 196 27 259 19 65 70 132
115 155 40 20 95 23 137 7z m150 -451 c-9 -151 -37 -230 -101 -286 -36 -31
-102 -56 -127 -48 -8 2 -26 7 -41 10 -37 8 -85 51 -109 99 -17 33 -18 42 -7
53 23 23 373 273 382 273 5 1 6 -43 3 -101z"
      />
      <path
        stroke="#ef4565"
        fill="#ef4565"
        d="M2042 873 l3 -558 98 -3 97 -3 0 398 1 398 29 -67 c85 -197 314 -705
323 -716 7 -9 43 -12 136 -10 l126 3 3 558 2 557 -100 0 -100 0 -1 -387 c0
-294 -3 -382 -11 -363 -7 14 -85 187 -174 385 l-163 360 -136 3 -135 3 2 -558z"
      />
      <path
        stroke="#ef4565"
        fill="#ef4565"
        d="M3072 873 l3 -558 335 0 335 0 3 92 3 93 -226 0 -225 0 0 150 0 150
215 0 215 0 0 90 0 90 -215 0 -215 0 0 130 0 130 223 2 222 3 3 93 3 92 -341
0 -340 0 2 -557z"
      />
    </g>
  </svg>